# xmcd CD database file
#
# Track frame offsets:
#	150
#	15457
#	35602
#	51635
#	67557
#	90692
#	104617
#	121347
#	139770
#	153147
#	174355
#	188312
#	212425
#
# Disc length: 3194 seconds
#
# Revision: 0
# Processed by: cddbd v1.5.1PL2 Copyright (c) Steve Scherf et al.
# Submitted via: CDex 1.51
#
DISCID=9f0c780d
DTITLE=Darcy Perry - Heavy Rain
DYEAR=2006
DGENRE=Blues
TTITLE0=Pushing Me Round
TTITLE1=Save the World
TTITLE2=Heavy Rain
TTITLE3=Its All Downhill From Here
TTITLE4=I Miss You Brother
TTITLE5=Here Comes Winter
TTITLE6=Reaper Man
TTITLE7=Peddler's Blues
TTITLE8=Jade's Song
TTITLE9=Ten Thousand Miles From Norway
TTITLE10=Before I Let You Down
TTITLE11=King Hit
TTITLE12=Video
EXTD=YEAR: 2006
EXTT0=
EXTT1=
EXTT2=
EXTT3=
EXTT4=
EXTT5=
EXTT6=
EXTT7=
EXTT8=
EXTT9=
EXTT10=
EXTT11=
EXTT12=
PLAYORDER=
